<?xml version="1.0" encoding="UTF-8" standalone="no"?>
<!-- Generator: Adobe Illustrator 19.1.0, SVG Export Plug-In . SVG Version: 6.00 Build 0)  -->

<svg
   xmlns:dc="http://purl.org/dc/elements/1.1/"
   xmlns:cc="http://creativecommons.org/ns#"
   xmlns:rdf="http://www.w3.org/1999/02/22-rdf-syntax-ns#"
   xmlns:svg="http://www.w3.org/2000/svg"
   xmlns="http://www.w3.org/2000/svg"
   xmlns:sodipodi="http://sodipodi.sourceforge.net/DTD/sodipodi-0.dtd"
   xmlns:inkscape="http://www.inkscape.org/namespaces/inkscape"
   version="1.1"
   id="Layer_1"
   x="0px"
   y="0px"
   viewBox="0 0 100 75.6"
   enable-background="new 0 0 897.3 75.6"
   xml:space="preserve"
   inkscape:version="0.48.4 r9939"
   width="100%"
   height="100%"
   sodipodi:docname="bp-logo.svg"><metadata
   id="metadata107"><rdf:RDF><cc:Work
       rdf:about=""><dc:format>image/svg+xml</dc:format><dc:type
         rdf:resource="http://purl.org/dc/dcmitype/StillImage" /><dc:title></dc:title></cc:Work></rdf:RDF></metadata><defs
   id="defs105">
	
	
	

		
		
	
			
			
			
			
			
			
		
			
			
			
			
			
		</defs><sodipodi:namedview
   pagecolor="#ffffff"
   bordercolor="#666666"
   borderopacity="1"
   objecttolerance="10"
   gridtolerance="10"
   guidetolerance="10"
   inkscape:pageopacity="0"
   inkscape:pageshadow="2"
   inkscape:window-width="1695"
   inkscape:window-height="966"
   id="namedview103"
   showgrid="false"
   showguides="true"
   inkscape:guide-bbox="true"
   inkscape:zoom="1.542405"
   inkscape:cx="167.27124"
   inkscape:cy="-18.605419"
   inkscape:window-x="0"
   inkscape:window-y="72"
   inkscape:window-maximized="0"
   inkscape:current-layer="Layer_1"><sodipodi:guide
     orientation="-0.70710678,0.70710678"
     position="-1644.1855,1021.7809"
     id="guide3084" /><sodipodi:guide
     orientation="1,0"
     position="451.24335,736.51214"
     id="guide3086" /></sodipodi:namedview>
<path
   style="fill:#334aab"
   inkscape:connector-curvature="0"
   id="path9"
   d="M 17.7,56.6 V 17 h 18.6 c 7.4,0 13,3.5 13,9.9 0,4 -2.5,7.5 -6,8.9 5.7,1.8 7.8,4.9 7.8,8.9 0,8.4 -6.6,11.8 -14.6,11.8 H 17.7 z m 7.6,-23.1 h 9.2 c 5,0 7.2,-2.4 7.2,-5.3 V 28.1 C 41.5,24.6 38.8,23 35,23 h -9.6 v 10.5 z m 0,17 h 10.2 c 6.1,0 8,-2 8,-5.6 0,-4.5 -4.1,-5.5 -8.1,-5.5 H 25.3 v 11.1 z" /><path
   style="fill:#f0a236"
   inkscape:connector-curvature="0"
   id="path23"
   d="M 64.3,56.6 H 56.7 V 17 h 16.6 c 8.1,0 14.5,3.7 14.5,12.3 v 0.1 c -0.1,9.9 -7.5,12.9 -15.5,12.9 h -8 v 14.3 z m 7.2,-20.5 c 5.8,0 8.6,-2.3 8.6,-6.6 0,-4.9 -3.9,-6.4 -8.3,-6.4 h -7.6 v 13 h 7.3 z" />
</svg>